<svg width="385" height="325" viewBox="0 0 385 325" fill="none" xmlns="http://www.w3.org/2000/svg">
<path d="M132.652 117.655C142.552 112.855 152.902 109.405 163.702 107.305C174.502 105.205 185.152 104.755 195.652 105.955C206.452 107.155 216.802 110.005 226.702 114.505C236.902 119.005 246.202 125.305 254.602 133.405C261.502 140.305 267.502 148.705 272.602 158.605C277.702 168.205 281.452 177.655 283.852 186.955C288.952 203.455 289.702 220.105 286.102 236.905C282.502 253.705 276.352 269.305 267.652 283.705C263.452 290.305 258.202 296.305 251.902 301.705C245.902 306.805 239.452 311.005 232.552 314.305C223.552 318.505 213.802 321.355 203.302 322.855C192.802 324.655 182.602 325.105 172.702 324.205C154.702 323.305 138.802 318.805 125.002 310.705C111.502 302.605 100.552 292.255 92.1522 279.655C84.0522 267.055 78.6522 252.805 75.9522 236.905C73.5522 220.705 74.6022 204.205 79.1022 187.405C83.9022 169.405 90.8022 154.855 99.8022 143.755C109.102 132.355 120.052 123.655 132.652 117.655ZM146.152 177.955C141.652 182.155 138.202 187.405 135.802 193.705C133.402 200.005 131.902 206.605 131.302 213.505C130.702 220.105 131.152 226.855 132.652 233.755C134.452 240.355 137.152 246.355 140.752 251.755C143.752 256.255 149.152 260.005 156.952 263.005C164.752 266.005 172.852 267.805 181.252 268.405C190.852 269.005 199.252 266.455 206.452 260.755C213.652 254.755 219.052 247.405 222.652 238.705C226.552 230.005 228.352 220.555 228.052 210.355C227.752 200.155 225.052 190.855 219.952 182.455C216.352 176.455 211.252 172.105 204.652 169.405C198.352 166.405 191.602 164.905 184.402 164.905C177.502 164.605 170.602 165.655 163.702 168.055C156.802 170.155 150.952 173.455 146.152 177.955Z" fill="#171717"/>
<path d="M285.75 0.450003C296.55 1.05 305.25 4.35 311.85 10.35C318.45 16.65 320.25 25.5 317.25 36.9C315.75 42.3 313.5 46.2 310.5 48.6C307.5 51.3 303.9 53.1 299.7 54C295.8 55.2 291.45 55.8 286.65 55.8C282.15 55.8 277.65 55.8 273.15 55.8H211.05C208.65 55.5 206.25 55.35 203.85 55.35C201.75 55.65 199.8 55.8 198 55.8H192.15V67.05C192.15 70.35 192.15 73.5 192.15 76.5C192.15 79.8 192.3 82.65 192.6 85.05C192.6 101.55 190.2 115.65 185.4 127.35C180.6 139.35 173.85 148.95 165.15 156.15C156.75 163.65 146.55 169.05 134.55 172.35C122.85 175.95 109.95 177.6 95.85 177.3C79.05 177 64.65 174.3 52.65 169.2C40.65 164.1 30.75 156.9 22.95 147.6C15.15 138.3 9.3 127.05 5.4 113.85C1.8 100.95 -7.08125e-07 86.4 0 70.2C8.13032e-07 51.6 0.150001 37.5 0.450002 27.9C0.750002 18.3 3.45 11.4 8.55 7.19999C13.65 3.29999 22.5 1.19999 35.1 0.899991C47.7 0.599992 66.15 0.449993 90.45 0.449994C113.85 0.449995 136.95 0.449997 159.75 0.449997C182.55 0.749998 205.5 0.749999 228.6 0.45C231.6 0.450001 234.75 0.3 238.05 0C241.35 1.44247e-07 245.1 3.08165e-07 249.3 4.91753e-07C253.5 6.75341e-07 258.45 8.91712e-07 264.15 1.14087e-06C270.15 1.40314e-06 277.35 0.150002 285.75 0.450003ZM50.4 84.6C51.3 101.1 55.8 112.5 63.9 118.8C68.4 122.1 73.8 124.65 80.1 126.45C86.4 128.25 92.7 129 99 128.7C105.3 128.4 111.3 127.05 117 124.65C123 122.55 127.95 119.1 131.85 114.3C135.45 110.1 138 105.9 139.5 101.7C141.3 97.5 142.35 93.15 142.65 88.65C143.25 84.15 143.4 79.35 143.1 74.25C143.1 69.15 142.95 63.3 142.65 56.7L88.65 56.7L51.3 55.8C51 58.8 50.7 61.95 50.4 65.25C49.8 70.95 49.8 77.4 50.4 84.6Z" fill="#171717"/>
<path d="M316.386 126.904C309.65 126.636 302.639 127.393 295.353 129.175C288.328 130.806 281.117 132.717 273.722 134.908C266.587 136.949 259.506 138.786 252.481 140.417C245.305 141.789 238.199 142.081 231.163 141.293C215.861 139.389 203.925 133.117 195.357 122.475C186.898 111.424 182.596 97.973 182.451 82.1219C182.488 73.7865 184.37 65.9452 188.095 58.5981C191.671 50.9912 196.366 44.1235 202.181 37.995C208.106 31.4568 214.76 25.8827 222.145 21.2729C229.529 16.6631 236.899 12.9278 244.254 10.067C249.12 8.29648 254.472 6.76561 260.308 5.47445C265.995 3.92349 271.591 3.11715 277.098 3.05541C282.865 2.84368 288.487 3.58147 293.965 5.26877C299.552 6.54627 304.625 9.3331 309.184 13.6293C312.173 16.4068 314.178 19.5793 315.198 23.147C316.479 26.5647 316.68 29.9128 315.801 33.1913C315.183 36.3197 313.615 39.3036 311.097 42.1428C308.839 44.832 305.871 46.8918 302.194 48.3222C297.847 49.7928 293.534 50.7237 289.257 51.1148C284.979 51.506 280.627 51.7672 276.199 51.8986C271.772 52.0299 267.364 52.4961 262.977 53.2971C258.85 53.948 254.837 55.3985 250.94 57.6485C244.815 60.8387 240.478 64.7279 237.931 69.3162C235.384 73.9045 234.306 78.3373 234.697 82.6148C235.348 86.7423 237.578 90.3046 241.387 93.3018C245.456 96.1489 251.043 97.4264 258.149 97.1343C264.585 96.8823 271.241 95.8108 278.117 93.9196C284.992 92.0285 291.738 90.2123 298.354 88.4712C305.229 86.58 311.995 85.0987 318.651 84.0271C325.567 82.8056 332.283 82.7385 338.8 83.8258C351.423 85.8906 361.345 91.0745 368.563 99.3776C376.042 107.531 380.847 117.054 382.979 127.947C385.112 138.84 384.306 150.044 380.561 161.559C377.077 172.924 370.814 182.776 361.771 191.114C355.137 197.023 347.403 202.527 338.57 207.627C329.996 212.577 320.897 216.618 311.274 219.749C301.91 222.73 292.206 224.523 282.162 225.125C272.377 225.578 263.162 224.317 254.516 221.341C248.478 219.285 243.83 215.733 240.57 210.687C237.42 205.231 235.759 199.954 235.588 194.857C235.526 189.35 237.124 184.617 240.38 180.659C243.637 176.7 248.839 174.909 255.985 175.287C261.792 175.744 268.378 175.752 275.744 175.31C282.96 174.608 289.876 173.387 296.491 171.646C303.107 169.904 309.013 167.534 314.209 164.534C319.665 161.384 323.667 157.515 326.214 152.926C329.83 145.989 330.417 140.107 327.977 135.281C325.387 130.194 321.523 127.402 316.386 126.904Z" fill="#171717"/>
</svg>
